<?xml version="1.0" encoding="utf-8"?>
<!-- Generator: Adobe Illustrator 16.0.0, SVG Export Plug-In . SVG Version: 6.00 Build 0)  -->
<!DOCTYPE svg PUBLIC "-//W3C//DTD SVG 1.1//EN" "http://www.w3.org/Graphics/SVG/1.1/DTD/svg11.dtd">
<svg version="1.1" xmlns="http://www.w3.org/2000/svg" xmlns:xlink="http://www.w3.org/1999/xlink" x="0px" y="0px" width="800px"
	 height="800px" viewBox="0 0 800 800" enable-background="new 0 0 800 800" xml:space="preserve">
<g id="Background">
	<rect fill="#FFFFFF" width="800" height="800"/>
</g>
<g id="Object">
	<g id="bg_copy">
	</g>
	<g>
		<g>
			<polygon fill="#59CAEA" points="590.48,498.035 634.778,667 670.778,443 			"/>
			<polygon fill="#01AAB5" points="492.778,565 634.778,667 590.48,498.035 			"/>
			<polygon fill="#F37326" points="381.413,530.062 306.778,577 492.778,565 			"/>
			<polygon fill="#F37029" points="320.675,661.643 328.778,711 634.778,667 492.778,565 			"/>
			<polygon fill="#B02C9F" points="718.296,370.085 704.491,391.268 704.492,391.268 732.915,372.807 			"/>
			<polygon fill="#F37029" points="232.778,711 328.778,711 320.675,661.643 			"/>
			<polygon fill="#F8931D" points="492.778,565 306.778,577 320.675,661.643 			"/>
			<polygon fill="#F7991E" points="306.778,577 216.429,694.649 232.778,711 320.675,661.643 			"/>
			<polygon fill="#068CA9" points="722.994,579.113 708.625,433.232 670.778,443 			"/>
			<polygon fill="#DA3420" points="332.786,514.806 306.778,577 381.413,530.062 			"/>
			<polygon fill="#B02C9F" points="704.492,391.268 800,385.298 732.915,372.807 			"/>
			<polygon fill="#01B7D4" points="722.994,579.113 634.778,667 766.652,692.917 722.994,579.113 722.994,579.113 			"/>
			<polygon fill="#A360B9" points="670.778,443 708.625,433.232 704.491,391.268 704.492,391.268 704.491,391.268 			"/>
			<polygon fill="#00A7B0" points="634.778,667 722.994,579.113 722.994,579.113 670.778,443 			"/>
			<rect x="722.994" y="579.113" fill="#D61E41" width="0" height="0"/>
			<polygon fill="#C2349B" points="800,385.298 800,385.298 776.17,344.714 732.915,372.807 			"/>
			<polygon fill="#D61E41" points="722.994,579.113 722.994,579.113 722.994,579.113 			"/>
			<polygon fill="#EF4136" points="149.804,516.87 108.778,587 306.778,577 			"/>
			<polygon fill="#F8931D" points="515.148,760.513 634.778,667 328.778,711 			"/>
			<path fill="#F36F26" d="M222.822,791.415C275.65,751.627,328.778,711,328.778,711h-96L222.822,791.415z"/>
			<polygon fill="#D61E41" points="800,385.298 800,385.298 800,385.298 			"/>
			<polygon fill="#D60EB1" points="799.063,246.149 740.772,284.427 756.577,311.344 			"/>
			<polygon fill="#FCB315" points="108.778,587 216.429,694.649 306.778,577 			"/>
			<polygon fill="#00A8CB" points="590.48,498.035 670.778,443 568.096,412.654 			"/>
			<polygon fill="#08ACB7" points="670.778,443 704.491,391.268 564.778,400 568.096,412.654 			"/>
			<polygon fill="#008A9F" points="718.296,370.085 634.183,354.423 564.778,400 704.491,391.268 			"/>
			<polygon fill="#F7991E" points="381.413,530.062 492.778,565 466.082,476.812 			"/>
			<polygon fill="#FFC20E" points="634.778,667 515.148,760.513 663.778,800 758.912,800 			"/>
			<polygon fill="#2F7888" points="722.994,579.113 800,614.03 800,502.395 722.994,579.113 			"/>
			<polygon fill="#D61E41" points="800,385.298 800,385.298 800,385.298 			"/>
			<polygon fill="#00A8CB" points="722.994,579.113 722.994,579.113 800,502.395 800,409.652 708.625,433.232 			"/>
			<polygon fill="#FD9F13" points="634.778,667 758.912,800 800,800 800,779.847 766.652,692.917 			"/>
			<polygon fill="#59CAEA" points="800,779.847 800,699.471 766.652,692.917 			"/>
			<polygon fill="#08ACB7" points="766.652,692.917 800,699.471 800,614.03 722.994,579.113 			"/>
			<polygon fill="#8E1D83" points="800,385.298 800,385.298 800,329.237 776.17,344.714 			"/>
			<polygon fill="#8C1670" points="756.577,311.344 776.17,344.714 800,329.237 800,245.534 799.063,246.149 			"/>
			<polygon fill="#D61E41" points="799.063,246.149 800,245.534 800,244.711 			"/>
			<polygon fill="#C2349B" points="740.772,284.427 799.063,246.149 800,244.711 800,229.039 718.813,247.026 			"/>
			<polygon fill="#B911D1" points="718.296,370.085 756.577,311.344 740.772,284.427 634.183,354.423 			"/>
			<polygon fill="#38C5ED" points="313.654,391.267 299.981,348.903 262.711,381.072 			"/>
			<polygon fill="#38C5ED" points="546.189,320.494 547.383,295.306 521.21,304.935 			"/>
			<polygon fill="#38C5ED" points="424.173,312.178 411.663,327.397 433.58,339.582 			"/>
			<polygon fill="#38C5ED" points="84.697,238.354 67.08,229.537 60.067,253.614 			"/>
			<polygon fill="#38C5ED" points="201.786,108.097 181.029,99.042 178.827,125.15 			"/>
			<polygon fill="#039BB1" points="331.435,379.191 328.606,363.052 320.894,375.307 			"/>
			<polygon fill="#B7059A" points="732.915,372.807 776.17,344.714 756.577,311.344 718.296,370.085 			"/>
			<path fill="#F5821F" d="M222.822,791.415L221.759,800h118.019l-11-89C328.778,711,275.65,751.627,222.822,791.415z"/>
			<polygon fill="#F5821F" points="464.635,800 663.778,800 515.148,760.513 			"/>
			<path fill="#FAA21C" d="M232.778,711l-16.35-16.351L135.524,800h75.887c3.789-2.847,7.599-5.714,11.411-8.585L232.778,711z"/>
			<path fill="#F5821F" d="M211.411,800h10.348l1.063-8.585C219.01,794.286,215.2,797.153,211.411,800z"/>
			<polygon fill="#F9A01C" points="328.778,711 339.778,800 464.635,800 515.148,760.513 			"/>
			<polygon fill="#8E002F" points="0,459.488 0,591.727 122.309,506.339 			"/>
			<polygon fill="#EE1B39" points="149.804,516.87 122.309,506.339 0,591.727 0,707.775 108.778,587 			"/>
			<polygon fill="#F89B1D" points="216.429,694.649 108.779,587 135.524,800 			"/>
			<polygon fill="#EF474A" points="108.779,587 0,707.775 0,800 			"/>
			<polygon fill="#F58120" points="135.524,800 108.779,587 0,800 			"/>
			<polygon fill="#A20994" points="768.035,114.207 800,96.031 800,0 745.492,95.469 			"/>
			<polygon fill="#DB3BBF" points="700.604,58.16 690.77,96.977 718.813,142.196 745.492,95.469 			"/>
			<polygon fill="#CF2BAD" points="768.035,114.207 745.492,95.469 718.813,142.196 718.813,142.196 			"/>
			<polygon fill="#771F80" points="715.337,0 630.63,0 700.604,58.16 			"/>
			<polygon fill="#E26EC2" points="718.813,142.196 690.77,96.977 670.778,142.528 718.813,142.196 			"/>
			<polygon fill="#D61E41" points="718.813,142.196 718.813,142.196 718.813,142.196 			"/>
			<polygon fill="#A20994" points="628.655,45.559 544.94,48.741 610.815,115.979 			"/>
			<polygon fill="#D60EB1" points="695.38,197.315 703.423,212.064 724.416,195.643 			"/>
			<polygon fill="#04769F" points="616.111,170.109 624.154,184.858 634.183,171 			"/>
			<polygon fill="#0181B5" points="545.656,227.915 456.85,258.543 538.101,267.125 			"/>
			<polygon fill="#911A92" points="800,174.005 718.813,247.026 800,229.039 			"/>
			<polygon fill="#CA50B4" points="718.813,142.196 718.813,142.196 754.313,168.436 800,158.268 800,153.954 			"/>
			<polygon fill="#920479" points="800,140.774 800,96.031 768.035,114.207 			"/>
			<polygon fill="#A20994" points="718.813,142.196 800,153.954 800,140.774 768.035,114.207 			"/>
			<polygon fill="#B92E96" points="740.773,284.427 718.813,247.026 634.183,354.423 			"/>
			<polygon fill="#ED4456" points="77.092,378.282 179.199,466.622 200.62,359.596 			"/>
			<polygon fill="#EF4136" points="211.617,326.079 148.68,272.477 150.919,328.557 			"/>
			<polygon fill="#EF4136" points="251.853,325.88 268.353,335.5 273.755,320.132 			"/>
			<polygon fill="#D60EB1" points="640.042,328.36 611.952,287.439 604.472,320.295 			"/>
			<polygon fill="#38C5ED" points="477.061,65.827 447.02,41.975 435.656,82.848 			"/>
			<polygon fill="#38C5ED" points="424.462,126.395 428.535,141.766 446.851,133.15 			"/>
			<polygon fill="#0181B5" points="425.776,51.113 391.451,76.755 427.94,69.197 			"/>
			<polygon fill="#D60EB1" points="498.188,0.887 458.135,0 476.135,20.39 			"/>
			<polygon fill="#D61E42" points="200.62,359.596 179.199,466.622 265.107,411.413 			"/>
			<polygon fill="#D61E42" points="122.309,506.339 149.804,516.87 179.199,466.622 			"/>
			<polygon fill="#EE1C36" points="149.804,516.87 306.778,577 179.199,466.622 			"/>
			<polygon fill="#EE1748" points="77.092,378.282 60.539,363.961 60.539,363.961 5.646,412.174 179.199,466.622 77.092,378.282 			
				"/>
			<polygon fill="#D61E42" points="60.539,363.961 60.539,363.961 0,311.584 0,410.402 5.646,412.174 			"/>
			<polygon fill="#EE5A2F" points="306.778,577 332.786,514.806 179.199,466.622 			"/>
			<polygon fill="#D61E42" points="0,410.402 0,417.134 5.646,412.174 			"/>
			<polygon fill="#E91B3B" points="5.646,412.174 0,417.134 0,459.488 122.309,506.339 179.199,466.622 			"/>
			<polygon fill="#D61E42" points="104.613,303.566 49.571,305.281 66.124,319.603 			"/>
			
				<rect x="57.871" y="371.122" transform="matrix(0.7563 0.6543 -0.6543 0.7563 259.592 45.4362)" fill="#D61E42" width="21.889" height="0"/>
			
				<rect x="-9.756" y="337.773" transform="matrix(0.7562 0.6543 -0.6543 0.7562 228.3782 62.5283)" fill="#C40F3F" width="80.051" height="0"/>
			<polygon fill="#00A8CB" points="564.778,400 434.41,372.185 466.082,476.812 568.096,412.654 			"/>
			<polygon fill="#039BB1" points="367.603,424.498 332.786,514.806 434.41,372.185 			"/>
			<polygon fill="#01B7D4" points="564.778,400 634.183,354.423 434.41,372.185 			"/>
			<polygon fill="#38C5ED" points="434.41,372.185 634.183,354.423 510.988,331.484 			"/>
			<polygon fill="#058EA4" points="492.778,565 590.48,498.035 466.082,476.812 			"/>
			<polygon fill="#01B7D4" points="466.082,476.812 590.48,498.035 568.096,412.654 			"/>
			<polygon fill="#B02C9F" points="800,409.652 800,385.298 708.625,433.232 			"/>
			<polygon fill="#D950B5" points="704.491,391.268 708.625,433.232 800,385.298 704.492,391.268 			"/>
			<polygon fill="#6C0570" points="745.492,95.469 800,0 702.569,59.793 			"/>
			<polygon fill="#43075E" points="700.604,58.16 702.569,59.793 800,0 715.337,0 			"/>
			<polygon fill="#EF4136" points="101.514,143.645 174.074,143.645 174.074,243.497 			"/>
			<polygon fill="#FCB315" points="101.514,143.645 40.36,189.579 142.497,200.042 			"/>
			<polygon fill="#ED1A43" points="179.199,466.622 332.786,514.806 265.107,411.413 			"/>
			<polygon fill="#08ACB7" points="265.107,411.413 332.786,514.806 367.603,424.498 			"/>
			<polygon fill="#01B7D4" points="434.41,372.185 332.786,514.806 466.082,476.812 			"/>
			<polygon fill="#01AAB5" points="332.786,514.806 381.413,530.062 466.082,476.812 			"/>
			<polygon fill="#E26EC2" points="194.333,123.685 196.728,131.875 187.049,129.095 			"/>
		</g>
	</g>
	<g>
		<g>
			<path fill="#FFFFFF" d="M300.426,765.434v-0.226c-0.301,0.351-0.599,0.629-0.888,0.843c-0.293,0.222-0.613,0.383-0.957,0.496
				c-0.344,0.11-0.718,0.169-1.12,0.169c-0.536,0-1.038-0.113-1.493-0.343c-0.457-0.223-0.855-0.55-1.187-0.975
				c-0.336-0.412-0.589-0.911-0.76-1.482c-0.175-0.57-0.258-1.188-0.258-1.849c0-1.405,0.343-2.497,1.025-3.28
				c0.685-0.783,1.584-1.173,2.702-1.173c0.649,0,1.194,0.112,1.637,0.331c0.445,0.225,0.879,0.565,1.298,1.018v-3.305
				c0-0.46,0.095-0.803,0.28-1.045c0.182-0.24,0.445-0.353,0.779-0.353c0.341,0,0.604,0.11,0.786,0.328
				c0.187,0.214,0.277,0.535,0.277,0.953v9.892c0,0.428-0.1,0.75-0.296,0.964c-0.201,0.21-0.452,0.318-0.767,0.318
				c-0.306,0-0.559-0.108-0.756-0.331C300.528,766.166,300.426,765.844,300.426,765.434z M296.016,762.141
				c0,0.605,0.093,1.125,0.282,1.55c0.189,0.43,0.45,0.747,0.774,0.968c0.329,0.217,0.687,0.328,1.078,0.328
				c0.393,0,0.753-0.111,1.08-0.314c0.327-0.203,0.587-0.514,0.781-0.939c0.192-0.432,0.292-0.957,0.292-1.592
				c0-0.601-0.1-1.111-0.292-1.539c-0.194-0.432-0.455-0.765-0.789-0.99c-0.332-0.23-0.694-0.34-1.089-0.34
				c-0.41,0-0.777,0.117-1.102,0.344c-0.32,0.237-0.571,0.576-0.75,1.012C296.104,761.06,296.016,761.564,296.016,762.141z"/>
			<path fill="#FFFFFF" d="M311.063,762.708h-4.387c0.002,0.509,0.107,0.958,0.303,1.345c0.201,0.394,0.464,0.686,0.801,0.878
				c0.332,0.202,0.696,0.295,1.097,0.295c0.268,0,0.514-0.026,0.734-0.089c0.221-0.062,0.434-0.168,0.645-0.297
				c0.208-0.131,0.4-0.277,0.578-0.436c0.173-0.15,0.398-0.359,0.68-0.62c0.114-0.096,0.28-0.153,0.493-0.153
				c0.232,0,0.415,0.063,0.559,0.188c0.14,0.127,0.213,0.312,0.213,0.537c0,0.207-0.078,0.441-0.237,0.714
				c-0.158,0.273-0.397,0.532-0.722,0.779c-0.317,0.247-0.72,0.453-1.208,0.626c-0.48,0.16-1.04,0.241-1.672,0.241
				c-1.44,0-2.556-0.414-3.361-1.231c-0.798-0.82-1.199-1.932-1.199-3.344c0-0.663,0.1-1.28,0.296-1.844
				c0.202-0.566,0.483-1.059,0.862-1.459c0.379-0.408,0.846-0.716,1.4-0.938c0.552-0.214,1.165-0.313,1.843-0.313
				c0.876,0,1.625,0.178,2.25,0.552c0.63,0.364,1.104,0.845,1.414,1.431c0.313,0.582,0.466,1.186,0.466,1.793
				c0,0.563-0.163,0.933-0.485,1.097S311.646,762.708,311.063,762.708z M306.676,761.436h4.064c-0.052-0.773-0.26-1.337-0.623-1.721
				c-0.357-0.381-0.831-0.573-1.417-0.573c-0.556,0-1.018,0.192-1.376,0.576C306.968,760.107,306.748,760.676,306.676,761.436z"/>
			<path fill="#FFFFFF" d="M322.022,763.784c0,0.617-0.152,1.146-0.45,1.585c-0.303,0.447-0.746,0.781-1.336,1.004
				c-0.587,0.229-1.302,0.343-2.148,0.343c-0.803,0-1.497-0.121-2.072-0.369c-0.578-0.246-1-0.557-1.274-0.921
				c-0.27-0.372-0.41-0.746-0.41-1.118c0-0.246,0.087-0.455,0.263-0.63c0.178-0.177,0.396-0.265,0.67-0.265
				c0.232,0,0.412,0.058,0.535,0.175c0.128,0.106,0.251,0.275,0.365,0.481c0.232,0.399,0.504,0.694,0.824,0.894
				c0.32,0.195,0.763,0.297,1.315,0.297c0.447,0,0.812-0.102,1.104-0.297c0.289-0.203,0.431-0.432,0.431-0.681
				c0-0.401-0.151-0.693-0.447-0.869c-0.298-0.181-0.791-0.358-1.478-0.519c-0.768-0.191-1.397-0.389-1.881-0.601
				c-0.485-0.214-0.874-0.488-1.165-0.836c-0.287-0.347-0.434-0.771-0.434-1.272c0-0.445,0.13-0.875,0.4-1.278
				c0.265-0.396,0.666-0.712,1.184-0.952c0.528-0.241,1.158-0.356,1.895-0.356c0.58,0,1.104,0.057,1.568,0.18
				c0.464,0.116,0.848,0.281,1.158,0.487c0.31,0.2,0.545,0.426,0.708,0.671c0.159,0.245,0.239,0.485,0.239,0.722
				c0,0.257-0.085,0.474-0.256,0.628c-0.173,0.167-0.419,0.25-0.736,0.25c-0.23,0-0.426-0.061-0.59-0.195
				c-0.161-0.128-0.343-0.326-0.552-0.594c-0.17-0.217-0.372-0.395-0.602-0.525c-0.228-0.131-0.542-0.198-0.938-0.198
				c-0.405,0-0.739,0.093-1.009,0.264s-0.4,0.387-0.4,0.644c0,0.234,0.099,0.425,0.292,0.573c0.201,0.153,0.464,0.284,0.8,0.379
				c0.329,0.096,0.796,0.214,1.383,0.363c0.689,0.171,1.262,0.372,1.701,0.604c0.443,0.239,0.777,0.516,1.001,0.833
				C321.911,763.01,322.022,763.377,322.022,763.784z"/>
			<path fill="#FFFFFF" d="M325.061,756.558c-0.319,0-0.585-0.104-0.803-0.288c-0.223-0.195-0.334-0.465-0.334-0.815
				c0-0.318,0.111-0.585,0.344-0.787c0.225-0.203,0.485-0.309,0.793-0.309c0.287,0,0.542,0.095,0.768,0.278
				c0.228,0.191,0.336,0.463,0.336,0.817c0,0.345-0.107,0.613-0.327,0.812C325.617,756.453,325.361,756.558,325.061,756.558z
				 M326.165,758.869v6.484c0,0.445-0.107,0.787-0.317,1.015c-0.216,0.234-0.486,0.348-0.815,0.348s-0.597-0.113-0.803-0.354
				c-0.204-0.234-0.306-0.572-0.306-1.009v-6.417c0-0.443,0.102-0.78,0.306-0.997c0.206-0.23,0.474-0.341,0.803-0.341
				s0.599,0.11,0.815,0.341C326.058,758.156,326.165,758.466,326.165,758.869z"/>
			<path fill="#FFFFFF" d="M336.733,759.238v6.519c0,0.74-0.076,1.385-0.24,1.918c-0.154,0.543-0.409,0.977-0.76,1.334
				c-0.353,0.345-0.808,0.61-1.379,0.783c-0.568,0.164-1.274,0.25-2.112,0.25c-0.774,0-1.466-0.106-2.075-0.32
				c-0.606-0.219-1.073-0.503-1.409-0.843c-0.322-0.341-0.488-0.69-0.488-1.056c0-0.278,0.095-0.498,0.28-0.666
				c0.185-0.176,0.409-0.265,0.675-0.265c0.327,0,0.616,0.146,0.862,0.439c0.118,0.146,0.241,0.295,0.372,0.449
				c0.133,0.146,0.272,0.277,0.431,0.382c0.154,0.109,0.343,0.188,0.559,0.239c0.22,0.052,0.471,0.078,0.755,0.078
				c0.583,0,1.035-0.078,1.357-0.239c0.32-0.161,0.545-0.39,0.675-0.677c0.125-0.292,0.196-0.604,0.22-0.93
				c0.021-0.335,0.041-0.866,0.052-1.604c-0.346,0.478-0.744,0.853-1.199,1.099c-0.45,0.255-0.988,0.387-1.613,0.387
				c-0.749,0-1.404-0.199-1.968-0.582c-0.563-0.379-0.995-0.919-1.293-1.612c-0.303-0.691-0.455-1.485-0.455-2.395
				c0-0.666,0.095-1.273,0.275-1.819c0.187-0.54,0.443-1,0.789-1.37c0.339-0.377,0.732-0.651,1.177-0.849
				c0.44-0.181,0.926-0.275,1.459-0.275c0.635,0,1.187,0.117,1.653,0.366c0.464,0.24,0.895,0.623,1.298,1.139v-0.296
				c0-0.394,0.095-0.694,0.287-0.907c0.197-0.214,0.436-0.317,0.741-0.317c0.431,0,0.718,0.142,0.865,0.421
				C336.664,758.303,336.733,758.702,336.733,759.238z M330.236,762.09c0,0.903,0.199,1.593,0.595,2.055
				c0.397,0.46,0.909,0.699,1.542,0.699c0.372,0,0.725-0.101,1.054-0.306c0.329-0.201,0.604-0.498,0.81-0.899
				c0.211-0.404,0.315-0.893,0.315-1.463c0-0.919-0.204-1.629-0.606-2.137c-0.402-0.513-0.936-0.768-1.592-0.768
				c-0.639,0-1.156,0.243-1.539,0.738C330.425,760.493,330.236,761.184,330.236,762.09z"/>
			<path fill="#FFFFFF" d="M341.041,758.838v0.271c0.396-0.521,0.827-0.903,1.296-1.144c0.471-0.246,1.004-0.366,1.615-0.366
				c0.59,0,1.121,0.128,1.587,0.382c0.462,0.26,0.81,0.623,1.042,1.096c0.146,0.272,0.246,0.571,0.287,0.883
				c0.045,0.324,0.066,0.725,0.066,1.22v4.175c0,0.445-0.104,0.787-0.308,1.015c-0.206,0.234-0.474,0.348-0.801,0.348
				c-0.338,0-0.606-0.113-0.814-0.354c-0.208-0.234-0.313-0.572-0.313-1.009v-3.735c0-0.74-0.102-1.31-0.31-1.703
				c-0.202-0.389-0.616-0.581-1.227-0.581c-0.4,0-0.765,0.113-1.094,0.356c-0.329,0.229-0.571,0.557-0.72,0.972
				c-0.109,0.345-0.166,0.968-0.166,1.876v2.815c0,0.453-0.106,0.797-0.317,1.02c-0.213,0.229-0.483,0.343-0.817,0.343
				c-0.325,0-0.59-0.113-0.796-0.354c-0.211-0.234-0.311-0.572-0.311-1.009v-6.484c0-0.429,0.09-0.747,0.28-0.954
				c0.185-0.213,0.44-0.316,0.763-0.316c0.194,0,0.374,0.045,0.53,0.133c0.159,0.102,0.292,0.241,0.381,0.425
				C340.994,758.343,341.041,758.571,341.041,758.838z"/>
			<path fill="#FFFFFF" d="M355.43,762.708h-4.387c0.005,0.509,0.104,0.958,0.306,1.345c0.199,0.394,0.467,0.686,0.798,0.878
				c0.334,0.202,0.699,0.295,1.099,0.295c0.268,0,0.514-0.026,0.734-0.089c0.223-0.062,0.434-0.168,0.649-0.297
				c0.204-0.131,0.398-0.277,0.568-0.436c0.18-0.15,0.405-0.359,0.685-0.62c0.116-0.096,0.282-0.153,0.495-0.153
				c0.23,0,0.415,0.063,0.554,0.188c0.147,0.127,0.215,0.312,0.215,0.537c0,0.207-0.076,0.441-0.234,0.714
				c-0.161,0.273-0.4,0.532-0.722,0.779c-0.317,0.247-0.72,0.453-1.21,0.626c-0.481,0.16-1.042,0.241-1.67,0.241
				c-1.44,0-2.558-0.414-3.361-1.231c-0.798-0.82-1.201-1.932-1.201-3.344c0-0.663,0.102-1.28,0.296-1.844
				c0.197-0.566,0.49-1.059,0.865-1.459c0.379-0.408,0.843-0.716,1.395-0.938c0.552-0.214,1.167-0.313,1.843-0.313
				c0.874,0,1.629,0.178,2.255,0.552c0.627,0.364,1.099,0.845,1.414,1.431c0.308,0.582,0.464,1.186,0.464,1.793
				c0,0.563-0.163,0.933-0.485,1.097C356.474,762.622,356.02,762.708,355.43,762.708z M351.043,761.436h4.067
				c-0.057-0.773-0.263-1.337-0.621-1.721c-0.357-0.381-0.831-0.573-1.419-0.573c-0.557,0-1.016,0.192-1.376,0.576
				C351.342,760.107,351.121,760.676,351.043,761.436z"/>
			<path fill="#FFFFFF" d="M365.318,765.434v-0.226c-0.303,0.351-0.599,0.629-0.893,0.843c-0.296,0.222-0.614,0.383-0.952,0.496
				c-0.344,0.11-0.715,0.169-1.123,0.169c-0.538,0-1.035-0.113-1.495-0.343c-0.455-0.223-0.85-0.55-1.187-0.975
				c-0.333-0.412-0.585-0.911-0.758-1.482c-0.175-0.57-0.26-1.188-0.26-1.849c0-1.405,0.343-2.497,1.028-3.28
				c0.689-0.783,1.592-1.173,2.705-1.173c0.646,0,1.191,0.112,1.632,0.331c0.447,0.225,0.881,0.565,1.302,1.018v-3.305
				c0-0.46,0.093-0.803,0.275-1.045c0.185-0.24,0.445-0.353,0.786-0.353c0.341,0,0.597,0.11,0.784,0.328
				c0.183,0.214,0.275,0.535,0.275,0.953v9.892c0,0.428-0.1,0.75-0.296,0.964c-0.196,0.21-0.455,0.318-0.763,0.318
				c-0.31,0-0.561-0.108-0.763-0.331C365.417,766.166,365.318,765.844,365.318,765.434z M360.906,762.141
				c0,0.605,0.097,1.125,0.284,1.55c0.189,0.43,0.448,0.747,0.777,0.968c0.327,0.217,0.687,0.328,1.073,0.328
				c0.396,0,0.755-0.111,1.085-0.314c0.319-0.203,0.583-0.514,0.777-0.939c0.194-0.432,0.293-0.957,0.293-1.592
				c0-0.601-0.099-1.111-0.293-1.539c-0.194-0.432-0.458-0.765-0.791-0.99c-0.327-0.23-0.692-0.34-1.085-0.34
				c-0.412,0-0.777,0.117-1.104,0.344c-0.322,0.237-0.571,0.576-0.746,1.012C360.993,761.06,360.906,761.564,360.906,762.141z"/>
			<path fill="#FFFFFF" d="M375.969,755.542v3.421c0.424-0.43,0.85-0.768,1.289-0.998c0.443-0.238,0.983-0.351,1.627-0.351
				c0.746,0,1.4,0.178,1.961,0.528c0.562,0.351,1,0.865,1.303,1.543c0.315,0.665,0.469,1.459,0.469,2.382
				c0,0.679-0.088,1.301-0.258,1.865c-0.175,0.565-0.424,1.063-0.755,1.474c-0.327,0.417-0.725,0.744-1.194,0.967
				c-0.469,0.229-0.983,0.343-1.549,0.343c-0.348,0-0.668-0.042-0.974-0.121c-0.303-0.078-0.564-0.194-0.779-0.329
				c-0.213-0.136-0.391-0.271-0.547-0.41c-0.147-0.146-0.346-0.361-0.592-0.647v0.226c0,0.422-0.102,0.742-0.308,0.964
				c-0.199,0.21-0.455,0.318-0.774,0.318c-0.31,0-0.568-0.108-0.758-0.318c-0.187-0.222-0.282-0.542-0.282-0.964v-9.796
				c0-0.451,0.09-0.795,0.275-1.026c0.187-0.238,0.44-0.351,0.765-0.351c0.348,0,0.616,0.11,0.803,0.336
				C375.875,754.815,375.969,755.136,375.969,755.542z M376.076,762.204c0,0.896,0.204,1.58,0.614,2.06
				c0.407,0.479,0.938,0.723,1.605,0.723c0.562,0,1.047-0.248,1.457-0.736c0.412-0.495,0.616-1.195,0.616-2.109
				c0-0.597-0.09-1.101-0.256-1.531c-0.17-0.424-0.417-0.757-0.727-0.994c-0.308-0.227-0.675-0.344-1.09-0.344
				c-0.426,0-0.805,0.117-1.142,0.344c-0.334,0.237-0.599,0.576-0.793,1.019C376.173,761.078,376.076,761.601,376.076,762.204z"/>
			<path fill="#FFFFFF" d="M386.268,766.993l0.201-0.502l-2.759-6.946c-0.17-0.403-0.253-0.685-0.253-0.872s0.05-0.37,0.149-0.535
				c0.095-0.165,0.229-0.291,0.402-0.392c0.175-0.099,0.351-0.147,0.542-0.147c0.322,0,0.563,0.104,0.727,0.301
				c0.166,0.212,0.313,0.506,0.438,0.888l1.9,5.521l1.795-5.136c0.144-0.417,0.277-0.742,0.386-0.977
				c0.114-0.23,0.242-0.392,0.37-0.477c0.128-0.078,0.308-0.12,0.547-0.12c0.166,0,0.332,0.045,0.486,0.133
				c0.159,0.094,0.279,0.214,0.36,0.368c0.092,0.154,0.13,0.313,0.13,0.482c-0.021,0.102-0.059,0.245-0.104,0.441
				c-0.05,0.193-0.114,0.392-0.183,0.588l-2.928,7.652c-0.253,0.677-0.497,1.205-0.741,1.586c-0.237,0.388-0.554,0.675-0.952,0.886
				c-0.4,0.2-0.936,0.307-1.608,0.307c-0.659,0-1.151-0.072-1.478-0.21c-0.332-0.146-0.493-0.402-0.493-0.782
				c0-0.259,0.076-0.455,0.232-0.596c0.156-0.144,0.389-0.211,0.696-0.211c0.119,0,0.237,0.017,0.353,0.048
				c0.14,0.035,0.261,0.046,0.37,0.046c0.256,0,0.459-0.035,0.606-0.109c0.149-0.077,0.282-0.211,0.397-0.401
				C385.976,767.639,386.113,767.359,386.268,766.993z"/>
		</g>
		<g>
			<path fill="#FFFFFF" d="M427.782,757.792h0.533v-0.672c0-0.701,0.088-1.261,0.274-1.668c0.171-0.419,0.474-0.716,0.9-0.905
				c0.424-0.194,1.002-0.286,1.75-0.286c1.303,0,1.961,0.32,1.961,0.963c0,0.207-0.073,0.383-0.21,0.536
				c-0.136,0.148-0.294,0.222-0.481,0.222c-0.092,0-0.244-0.017-0.457-0.055c-0.208-0.029-0.391-0.045-0.537-0.045
				c-0.41,0-0.668,0.118-0.784,0.354c-0.114,0.244-0.171,0.584-0.171,1.021v0.536h0.552c0.855,0,1.281,0.261,1.281,0.779
				c0,0.362-0.108,0.593-0.341,0.695c-0.228,0.096-0.537,0.148-0.94,0.148h-0.552v5.938c0,0.439-0.106,0.776-0.313,1.013
				c-0.215,0.236-0.485,0.35-0.822,0.35c-0.317,0-0.582-0.113-0.795-0.35c-0.209-0.236-0.315-0.573-0.315-1.013v-5.938h-0.618
				c-0.334,0-0.585-0.074-0.768-0.233c-0.185-0.146-0.272-0.341-0.272-0.585C426.657,758.06,427.034,757.792,427.782,757.792z"/>
			<path fill="#FFFFFF" d="M435.798,763.473v1.881c0,0.453-0.106,0.797-0.317,1.02c-0.219,0.229-0.49,0.343-0.819,0.343
				c-0.318,0-0.588-0.113-0.792-0.348c-0.215-0.228-0.317-0.569-0.317-1.015v-6.245c0-1.009,0.36-1.51,1.093-1.51
				c0.369,0,0.642,0.115,0.803,0.352c0.168,0.232,0.258,0.585,0.274,1.041c0.271-0.456,0.545-0.809,0.827-1.041
				c0.281-0.236,0.655-0.352,1.129-0.352c0.47,0,0.927,0.115,1.372,0.352c0.445,0.232,0.663,0.548,0.663,0.931
				c0,0.283-0.09,0.5-0.279,0.688c-0.189,0.172-0.392,0.259-0.616,0.259c-0.081,0-0.277-0.047-0.592-0.142
				c-0.315-0.11-0.59-0.159-0.839-0.159c-0.324,0-0.595,0.085-0.803,0.262c-0.209,0.171-0.365,0.427-0.488,0.766
				c-0.113,0.339-0.194,0.747-0.239,1.215C435.814,762.234,435.798,762.806,435.798,763.473z"/>
			<path fill="#FFFFFF" d="M446.783,762.708h-4.39c0.012,0.509,0.109,0.958,0.311,1.345c0.196,0.394,0.462,0.686,0.798,0.878
				c0.329,0.202,0.694,0.295,1.092,0.295c0.271,0,0.519-0.026,0.739-0.089c0.225-0.062,0.436-0.168,0.645-0.297
				c0.213-0.131,0.4-0.277,0.575-0.436c0.178-0.15,0.407-0.359,0.687-0.62c0.114-0.096,0.28-0.153,0.493-0.153
				c0.229,0,0.414,0.063,0.552,0.188c0.14,0.127,0.218,0.312,0.218,0.537c0,0.207-0.078,0.441-0.239,0.714
				c-0.163,0.273-0.402,0.532-0.713,0.779c-0.322,0.247-0.729,0.453-1.215,0.626c-0.485,0.16-1.045,0.241-1.67,0.241
				c-1.447,0-2.565-0.414-3.363-1.231c-0.801-0.82-1.198-1.932-1.198-3.344c0-0.663,0.097-1.28,0.299-1.844
				c0.191-0.566,0.48-1.059,0.859-1.459c0.377-0.408,0.843-0.716,1.399-0.938c0.548-0.214,1.163-0.313,1.843-0.313
				c0.874,0,1.618,0.178,2.248,0.552c0.63,0.364,1.102,0.845,1.414,1.431c0.31,0.582,0.471,1.186,0.471,1.793
				c0,0.563-0.161,0.933-0.49,1.097C447.82,762.622,447.375,762.708,446.783,762.708z M442.394,761.436h4.069
				c-0.06-0.773-0.256-1.337-0.613-1.721c-0.367-0.381-0.839-0.573-1.424-0.573c-0.562,0-1.016,0.192-1.381,0.576
				C442.689,760.107,442.475,760.676,442.394,761.436z"/>
			<path fill="#FFFFFF" d="M456.785,762.708h-4.392c0.01,0.509,0.111,0.958,0.311,1.345c0.198,0.394,0.469,0.686,0.796,0.878
				c0.334,0.202,0.701,0.295,1.099,0.295c0.268,0,0.507-0.026,0.731-0.089c0.223-0.062,0.445-0.168,0.645-0.297
				c0.209-0.131,0.4-0.277,0.578-0.436c0.175-0.15,0.41-0.359,0.685-0.62c0.116-0.096,0.277-0.153,0.492-0.153
				c0.23,0,0.42,0.063,0.56,0.188c0.14,0.127,0.211,0.312,0.211,0.537c0,0.207-0.079,0.441-0.232,0.714
				c-0.161,0.273-0.402,0.532-0.725,0.779c-0.317,0.247-0.723,0.453-1.206,0.626c-0.485,0.16-1.044,0.241-1.672,0.241
				c-1.438,0-2.561-0.414-3.361-1.231c-0.8-0.82-1.198-1.932-1.198-3.344c0-0.663,0.1-1.28,0.291-1.844
				c0.199-0.566,0.486-1.059,0.865-1.459c0.379-0.408,0.843-0.716,1.399-0.938c0.554-0.214,1.165-0.313,1.838-0.313
				c0.874,0,1.63,0.178,2.26,0.552c0.623,0.364,1.094,0.845,1.409,1.431c0.313,0.582,0.464,1.186,0.464,1.793
				c0,0.563-0.158,0.933-0.482,1.097C457.824,762.622,457.374,762.708,456.785,762.708z M452.394,761.436h4.066
				c-0.054-0.773-0.261-1.337-0.618-1.721c-0.357-0.381-0.826-0.573-1.414-0.573c-0.561,0-1.016,0.192-1.378,0.576
				C452.696,760.107,452.47,760.676,452.394,761.436z"/>
			<path fill="#FFFFFF" d="M462.372,758.86v0.259c0.429-0.516,0.864-0.898,1.316-1.139c0.455-0.249,0.969-0.366,1.547-0.366
				c0.688,0,1.321,0.178,1.904,0.53c0.58,0.357,1.037,0.879,1.379,1.561c0.334,0.68,0.502,1.492,0.502,2.436
				c0,0.687-0.1,1.319-0.294,1.899c-0.191,0.579-0.459,1.063-0.801,1.454c-0.338,0.393-0.736,0.695-1.198,0.906
				s-0.962,0.315-1.492,0.315c-0.644,0-1.182-0.131-1.615-0.386c-0.44-0.258-0.854-0.636-1.248-1.131v3.364
				c0,0.983-0.365,1.479-1.07,1.479c-0.429,0-0.706-0.128-0.846-0.379c-0.138-0.257-0.201-0.632-0.201-1.116v-9.678
				c0-0.429,0.092-0.747,0.276-0.954c0.186-0.213,0.441-0.316,0.771-0.316c0.314,0,0.57,0.104,0.77,0.323
				C462.274,758.138,462.372,758.449,462.372,758.86z M466.771,762.117c0-0.595-0.09-1.104-0.272-1.523
				c-0.183-0.429-0.431-0.757-0.748-0.982c-0.32-0.23-0.676-0.34-1.068-0.34c-0.613,0-1.137,0.243-1.566,0.738
				c-0.421,0.483-0.639,1.203-0.639,2.147c0,0.888,0.213,1.584,0.639,2.081c0.418,0.5,0.94,0.748,1.566,0.748
				c0.379,0,0.717-0.111,1.032-0.328c0.322-0.221,0.575-0.538,0.768-0.97C466.671,763.248,466.771,762.728,466.771,762.117z"/>
			<path fill="#FFFFFF" d="M471.962,756.558c-0.319,0-0.59-0.104-0.808-0.288c-0.218-0.195-0.334-0.465-0.334-0.815
				c0-0.318,0.116-0.585,0.346-0.787c0.221-0.203,0.488-0.309,0.796-0.309c0.284,0,0.543,0.095,0.768,0.278
				c0.223,0.191,0.336,0.463,0.336,0.817c0,0.345-0.108,0.613-0.331,0.812C472.517,756.453,472.254,756.558,471.962,756.558z
				 M473.065,758.869v6.484c0,0.445-0.108,0.787-0.324,1.015c-0.211,0.234-0.476,0.348-0.813,0.348
				c-0.329,0-0.594-0.113-0.798-0.354c-0.204-0.234-0.311-0.572-0.311-1.009v-6.417c0-0.443,0.106-0.78,0.311-0.997
				c0.204-0.23,0.469-0.341,0.798-0.341c0.337,0,0.602,0.11,0.813,0.341C472.957,758.156,473.065,758.466,473.065,758.869z"/>
			<path fill="#FFFFFF" d="M480.97,765.689l-1.982-3.256l-1.218,1.154v1.781c0,0.43-0.106,0.761-0.331,0.997
				c-0.235,0.236-0.5,0.35-0.787,0.35c-0.351,0-0.615-0.113-0.812-0.348c-0.206-0.228-0.299-0.569-0.299-1.015v-9.562
				c0-0.5,0.09-0.88,0.279-1.139c0.199-0.262,0.474-0.393,0.831-0.393c0.344,0,0.616,0.112,0.82,0.353
				c0.201,0.242,0.298,0.585,0.298,1.045v5.438l2.527-2.647c0.314-0.327,0.55-0.555,0.711-0.671c0.165-0.123,0.366-0.18,0.602-0.18
				c0.281,0,0.512,0.083,0.703,0.269c0.183,0.177,0.277,0.398,0.277,0.668c0,0.33-0.306,0.766-0.912,1.313l-1.196,1.092l2.303,3.617
				c0.175,0.27,0.296,0.472,0.369,0.61c0.068,0.137,0.108,0.275,0.108,0.396c0,0.359-0.094,0.638-0.288,0.849
				c-0.197,0.2-0.46,0.305-0.772,0.305c-0.274,0-0.48-0.076-0.635-0.225C481.422,766.347,481.223,766.076,480.97,765.689z"/>
			<path fill="#FFFFFF" d="M486.517,766.716c-0.339,0-0.633-0.108-0.876-0.331c-0.249-0.217-0.38-0.523-0.38-0.918
				c0-0.334,0.124-0.623,0.36-0.862c0.237-0.24,0.533-0.363,0.872-0.363c0.343,0,0.64,0.123,0.883,0.358
				c0.244,0.24,0.367,0.525,0.367,0.867c0,0.389-0.123,0.699-0.367,0.918C487.133,766.607,486.848,766.716,486.517,766.716z"/>
			<path fill="#FFFFFF" d="M498.345,763.938c0,0.278-0.083,0.575-0.253,0.893c-0.166,0.325-0.422,0.624-0.761,0.912
				c-0.344,0.286-0.779,0.52-1.296,0.69c-0.521,0.178-1.113,0.265-1.76,0.265c-1.385,0-2.468-0.403-3.244-1.212
				c-0.777-0.807-1.168-1.888-1.168-3.248c0-0.921,0.178-1.737,0.533-2.439c0.353-0.708,0.873-1.254,1.549-1.638
				c0.675-0.386,1.476-0.575,2.413-0.575c0.578,0,1.111,0.082,1.597,0.253c0.487,0.165,0.897,0.382,1.236,0.654
				c0.336,0.265,0.592,0.552,0.77,0.855c0.18,0.31,0.268,0.589,0.268,0.854c0,0.272-0.1,0.497-0.303,0.68
				c-0.199,0.188-0.44,0.278-0.725,0.278c-0.188,0-0.346-0.05-0.465-0.141c-0.128-0.097-0.261-0.25-0.414-0.467
				c-0.271-0.416-0.56-0.73-0.86-0.938c-0.298-0.204-0.68-0.309-1.137-0.309c-0.658,0-1.193,0.262-1.604,0.775
				c-0.402,0.52-0.608,1.225-0.608,2.122c0,0.424,0.052,0.812,0.161,1.164c0.097,0.351,0.253,0.651,0.447,0.908
				c0.194,0.242,0.438,0.438,0.713,0.563c0.28,0.129,0.593,0.191,0.924,0.191c0.445,0,0.834-0.107,1.156-0.308
				c0.317-0.22,0.602-0.527,0.848-0.958c0.14-0.252,0.287-0.449,0.443-0.584c0.161-0.149,0.353-0.217,0.582-0.217
				c0.279,0,0.5,0.097,0.685,0.308C498.25,763.485,498.345,763.704,498.345,763.938z"/>
			<path fill="#FFFFFF" d="M508.695,762.157c0,0.662-0.095,1.28-0.309,1.843c-0.208,0.569-0.511,1.054-0.906,1.455
				c-0.394,0.406-0.86,0.721-1.412,0.942c-0.55,0.21-1.165,0.318-1.852,0.318c-0.671,0-1.287-0.108-1.829-0.331
				c-0.537-0.217-1.016-0.529-1.414-0.934c-0.389-0.415-0.698-0.895-0.899-1.451c-0.201-0.554-0.309-1.173-0.309-1.843
				c0-0.68,0.107-1.297,0.32-1.871c0.201-0.556,0.499-1.044,0.883-1.441c0.394-0.401,0.867-0.707,1.419-0.923
				c0.555-0.22,1.161-0.323,1.829-0.323c0.687,0,1.298,0.11,1.852,0.328c0.555,0.216,1.025,0.528,1.421,0.938
				c0.398,0.402,0.692,0.882,0.897,1.443C508.601,760.868,508.695,761.485,508.695,762.157z M506.447,762.157
				c0-0.916-0.206-1.626-0.606-2.138c-0.4-0.507-0.938-0.764-1.624-0.764c-0.434,0-0.82,0.109-1.158,0.337
				c-0.332,0.23-0.59,0.568-0.772,1.009c-0.18,0.444-0.271,0.963-0.271,1.556c0,0.586,0.091,1.098,0.271,1.533
				c0.175,0.44,0.434,0.769,0.763,1.006c0.331,0.234,0.723,0.343,1.168,0.343c0.687,0,1.224-0.246,1.624-0.757
				C506.241,763.766,506.447,763.055,506.447,762.157z"/>
			<path fill="#FFFFFF" d="M517.928,762.316v2.986c0,0.473-0.106,0.825-0.317,1.06c-0.218,0.24-0.5,0.354-0.851,0.354
				c-0.339,0-0.613-0.113-0.826-0.354c-0.211-0.234-0.32-0.587-0.32-1.06v-3.572c0-0.569-0.017-0.998-0.052-1.318
				c-0.038-0.31-0.143-0.569-0.315-0.765c-0.168-0.204-0.436-0.299-0.805-0.299c-0.729,0-1.218,0.249-1.447,0.754
				c-0.232,0.504-0.351,1.228-0.351,2.166v3.034c0,0.466-0.104,0.815-0.317,1.055c-0.211,0.237-0.49,0.358-0.834,0.358
				c-0.336,0-0.613-0.121-0.836-0.358c-0.216-0.239-0.322-0.589-0.322-1.055v-6.422c0-0.415,0.093-0.738,0.289-0.954
				c0.199-0.218,0.455-0.328,0.768-0.328s0.568,0.104,0.768,0.301c0.213,0.212,0.313,0.499,0.313,0.855v0.208
				c0.389-0.461,0.805-0.802,1.25-1.02c0.441-0.217,0.938-0.329,1.476-0.329c0.568,0,1.052,0.112,1.455,0.336
				c0.409,0.225,0.741,0.565,1.004,1.013c0.377-0.452,0.786-0.793,1.22-1.018c0.429-0.219,0.909-0.331,1.436-0.331
				c0.613,0,1.144,0.117,1.587,0.358c0.445,0.248,0.771,0.59,0.992,1.035c0.196,0.407,0.289,1.044,0.289,1.916v4.379
				c0,0.473-0.111,0.825-0.325,1.06c-0.208,0.24-0.487,0.354-0.84,0.354c-0.337,0-0.621-0.121-0.832-0.358
				c-0.223-0.239-0.329-0.589-0.329-1.055v-3.774c0-0.478-0.017-0.866-0.062-1.158c-0.047-0.288-0.151-0.533-0.329-0.728
				c-0.185-0.199-0.457-0.294-0.824-0.294c-0.299,0-0.573,0.089-0.841,0.263c-0.263,0.169-0.479,0.408-0.625,0.71
				C518.008,760.693,517.928,761.361,517.928,762.316z"/>
		</g>
		<g>
			<path fill="#FFFFFF" d="M410.102,751.813c-0.043-0.141-0.088-0.287-0.135-0.429c0.746-0.069,1.255-0.976,0.891-1.644
				c-0.339-0.753-1.502-0.846-1.949-0.155c-0.479,0.613-0.104,1.579,0.627,1.775c0.05,0.15,0.088,0.312,0.136,0.463
				c-1.128,0.081-2.279,0.329-3.231,0.973c0.1,0.267,0.197,0.553,0.294,0.825c1.916-0.839,4.055-0.658,6.073-0.456
				c0.071-0.265,0.138-0.533,0.203-0.799C412.096,751.959,411.097,751.808,410.102,751.813z"/>
			<path fill="#FFFFFF" d="M421.476,754.898c-0.301,0.152-0.358,0.521-0.344,0.826c-0.337,0.324-0.175,0.822-0.211,1.228
				c-0.076,0.231-0.351,0.26-0.542,0.349c-0.266-0.409-0.545-0.794-0.905-1.124l0.007-0.02c-0.388-0.358-0.805-0.687-1.243-0.975
				c-0.351,0.377-0.723,0.752-1.061,1.142c0.67,0.74,1.293,1.543,1.843,2.375c0.381,0.637,0.682,1.315,0.949,2.008
				c0.566-0.295,1.13-0.599,1.698-0.895c-0.301-0.693-0.642-1.372-1.007-2.034c0.249-0.135,0.59-0.265,0.626-0.595
				c0.028-0.364-0.048-0.756,0.163-1.074c0.442,0.282,1.11-0.035,1.115-0.567C422.624,754.982,421.93,754.589,421.476,754.898z"/>
			<path fill="#FFFFFF" d="M418.398,759.023c-0.739-1.229-1.539-2.452-2.631-3.396c-1.254-1.108-2.89-1.856-4.588-1.849
				c-2.144-0.019-4.315,0.32-6.289,1.18c-1.859,0.817-3.479,2.281-4.296,4.16c-0.792,1.689-0.777,3.642-0.422,5.443
				c1.971,0.491,3.977,0.93,6.007,1.021c2.011,0.063,4.026,0.11,6.022-0.164c2.738-0.366,5.424-1.228,7.816-2.629
				C420.019,762.791,419.685,760.989,418.398,759.023z M408.709,761.453c-0.372,0.537-0.907,0.954-1.519,1.188
				c-1.155,0.43-2.556,0.134-3.387-0.783c-0.578-0.637-0.921-1.492-0.859-2.361c0.047-1.08,0.715-2.089,1.665-2.594
				c0.72-0.388,1.592-0.458,2.385-0.236c0.329,0.08,0.63,0.236,0.914,0.424c0.588,0.412,1.021,1.022,1.22,1.715
				C409.398,759.69,409.223,760.684,408.709,761.453z M417.02,759.497c-0.137,0.929-1.021,1.707-1.966,1.647
				c-0.547,0.047-1.072-0.21-1.444-0.598c-0.268-0.332-0.485-0.71-0.523-1.15c-0.128-0.935,0.533-1.904,1.452-2.127
				c0.402-0.113,0.829-0.051,1.229,0.046C416.627,757.618,417.193,758.597,417.02,759.497z"/>
			<path fill="#FFFFFF" d="M400.618,756.281c-0.801,0.481-1.459,1.165-2.011,1.914c-0.161-0.301-0.208-0.653-0.417-0.921
				c-0.118-0.156-0.334-0.091-0.497-0.091c-0.216,0.018-0.422-0.039-0.623-0.099c0.237-0.328,0.173-0.835-0.185-1.054
				c-0.383-0.271-0.978-0.036-1.082,0.422c-0.159,0.499,0.372,1.002,0.862,0.87c0.263,0.386,0.734,0.324,1.135,0.335
				c0.178,0.314,0.317,0.656,0.549,0.938c-0.431,0.847-0.675,1.796-0.696,2.744c0.554,0.232,1.108,0.467,1.66,0.699
				c0.026-0.604,0.1-1.199,0.187-1.782c0.185-1.295,0.929-2.409,1.813-3.329C401.094,756.697,400.848,756.497,400.618,756.281z"/>
			<path fill="#FFFFFF" d="M413.512,765.979c-2.034,0.444-4.13,0.576-6.207,0.484c-1.404-0.066-2.812-0.201-4.181-0.506
				c-0.974-0.197-1.928-0.48-2.89-0.755c0.156,1.221,0.651,2.391,1.357,3.399c0.834,1.172,1.949,2.243,3.335,2.679
				c1.08,0.295,2.368,0.662,4.595,0.623c1.838-0.028,3.643-0.262,5.253-0.953c1.04-0.444,2.011-1.052,2.852-1.815
				c0.723-0.682,1.291-1.533,1.68-2.442c0.379-0.865,0.723-2.411,0.687-3.208C418.001,764.619,415.781,765.602,413.512,765.979z"/>
		</g>
	</g>
</g>
</svg>
